<svg version="1.1" id="Layer_1" x="0" y="0" viewBox="0 0 414 186.67" xml:space="preserve">
  <style>
    .st0{fill:#e0ba91}
  </style>
  <path d="M107.62 80.54c-2.16 0-3.24.55-3.24 1.66v12.02c0 1.8-.2 3.41-.59 4.84-.4 1.43-1.03 2.63-1.89 3.62-.86.98-1.99 1.73-3.38 2.25s-3.08.77-5.08.77c-2.02 0-3.74-.26-5.18-.77-1.44-.52-2.62-1.27-3.55-2.25-.92-.98-1.6-2.19-2.02-3.62-.42-1.43-.63-3.04-.63-4.84V82.2c0-1.1-1.07-1.66-3.2-1.66v-2.12h12.6v2.12c-1.37 0-2.36.14-2.97.41-.61.28-.92.69-.92 1.24v12.02c0 1.44.11 2.69.32 3.74.22 1.06.58 1.93 1.1 2.61.52.68 1.21 1.19 2.09 1.53.88.34 1.99.5 3.33.5 1.32 0 2.43-.17 3.33-.5.9-.34 1.63-.85 2.18-1.53.55-.68.94-1.55 1.17-2.61.23-1.06.34-2.3.34-3.74V82.2c0-.55-.31-.97-.94-1.24s-1.62-.41-2.99-.41v-2.12h10.12v2.11zM125.34 78.38c1.3 0 2.51.08 3.65.23 1.14.16 2.14.47 2.99.94.85.47 1.52 1.15 2.02 2.03.49.89.74 2.05.74 3.49 0 .79-.14 1.5-.41 2.12-.28.62-.65 1.17-1.12 1.64-.47.47-1.01.86-1.64 1.19-.62.32-1.28.57-1.98.74 2.16.22 3.85.85 5.08 1.91 1.22 1.06 1.84 2.56 1.84 4.5 0 1.51-.23 2.77-.68 3.78a6.117 6.117 0 01-1.98 2.45c-.86.62-1.93 1.07-3.2 1.33-1.27.26-2.74.4-4.39.4H110.2v-2.05c2.14 0 3.2-.55 3.2-1.66V82.27c0-1.11-1.07-1.66-3.2-1.66v-2.2l15.14-.03zm-6.45 3.13v8.39h5.83c1.44 0 2.52-.35 3.24-1.04.72-.7 1.08-1.8 1.08-3.31 0-1.37-.37-2.38-1.12-3.04-.74-.66-1.81-.99-3.2-.99h-5.83zm0 10.8v9.86h6.77c.94 0 1.72-.13 2.36-.38.64-.25 1.15-.61 1.55-1.07s.68-1.01.85-1.64c.17-.64.25-1.35.25-2.15 0-1.66-.42-2.85-1.26-3.56-.84-.71-2.09-1.07-3.74-1.07h-6.78zM164.22 80.54c-.84 0-1.51.09-2 .27-.49.18-.83.43-1.03.74l-8.17 12.04v7.82c0 1.11 1.2 1.66 3.6 1.66v2.05h-12.71v-2.05c2.4 0 3.6-.55 3.6-1.66v-7.82l-7.92-12.01c-.26-.41-.64-.69-1.12-.85-.48-.16-1.06-.23-1.73-.23v-2.12h13.21v2.12h-2.84c-.72 0-1.08.24-1.08.72 0 .14.06.31.18.5l5.83 9.25 5.9-9.11c.1-.17.14-.34.14-.5 0-.58-.49-.86-1.48-.86h-1.73v-2.12h9.32v2.16zM193.66 89.4l-2.27.11c-.1-1.61-.27-2.95-.52-4.01-.25-1.07-.59-1.92-1.01-2.56-.42-.64-.93-1.08-1.54-1.33-.6-.25-1.31-.38-2.13-.38h-3.25v20.19c0 1.11 1.08 1.66 3.24 1.66v2.05h-11.95v-2.05c2.14 0 3.2-.55 3.2-1.66V81.23h-3.28c-.82 0-1.52.13-2.12.38-.6.25-1.11.7-1.53 1.33-.42.64-.76 1.49-1.01 2.56s-.43 2.41-.52 4.01l-2.27-.11V78.42h26.96V89.4zM210.19 77.84c1.92 0 3.7.24 5.35.72 1.64.48 3.06 1.26 4.25 2.35s2.12 2.52 2.79 4.3c.67 1.77 1.01 3.96 1.01 6.54 0 2.13-.29 4.06-.86 5.77-.58 1.71-1.44 3.18-2.59 4.39s-2.6 2.15-4.36 2.8c-1.75.66-3.79.99-6.12.99-1.9 0-3.66-.23-5.29-.68-1.63-.46-3.04-1.21-4.23-2.27s-2.12-2.43-2.81-4.13c-.68-1.7-1.03-3.8-1.03-6.29 0-2.23.26-4.24.79-6.02.53-1.79 1.36-3.31 2.48-4.57 1.13-1.26 2.57-2.22 4.32-2.89 1.75-.67 3.85-1.01 6.3-1.01zm.18 2.95c-1.49 0-2.77.22-3.85.67a6.58 6.58 0 00-2.65 1.93c-.68.84-1.19 1.87-1.51 3.1-.32 1.22-.49 2.62-.49 4.18 0 2.42.18 4.41.54 5.96.36 1.55.88 2.77 1.55 3.67.67.9 1.49 1.52 2.45 1.87.96.35 2.04.52 3.24.52 1.58 0 2.92-.23 4-.7s1.94-1.15 2.59-2.05c.65-.9 1.12-2.02 1.4-3.35.29-1.33.43-2.86.43-4.59 0-2.23-.19-4.07-.56-5.51-.37-1.44-.89-2.58-1.57-3.42-.67-.84-1.48-1.43-2.43-1.76-.94-.35-1.99-.52-3.14-.52zM251.12 80.51c-1.08 0-1.85.09-2.3.27s-.74.44-.86.77l-9 23.58h-5.22l-8.64-23.54c-.14-.36-.48-.63-1.01-.81s-1.18-.27-1.94-.27v-2.12h13.14v2.12h-3.17c-.7 0-1.04.2-1.04.61 0 .14.04.3.11.47l6.91 19.22 6.9-18.94c.07-.17.11-.34.11-.5 0-.58-.54-.86-1.62-.86h-2.23v-2.12h9.83l.03 2.12zM271.57 101.96c.24.72 1.22 1.08 2.95 1.08v2.09h-13.18v-2.09h3.17c.7 0 1.04-.23 1.04-.68 0-.07-.04-.2-.11-.4L264 98.07h-11.05l-1.33 3.6c-.05.14-.07.29-.07.43 0 .62.53.94 1.58.94h2.23v2.09h-9.83v-2.12c1.01 0 1.75-.08 2.23-.25.48-.17.78-.42.9-.76l9-23.62h5.22l8.69 23.58zm-17.68-6.55h9.22l-4.57-12.67-4.65 12.67zm1.87-21.28c.72-.29 1.42-.65 2.09-1.1.67-.44 1.32-.86 1.94-1.26s1.24-.74 1.84-1.03c.6-.29 1.21-.43 1.84-.43.72 0 1.23.17 1.53.52.3.35.45.75.45 1.21 0 .6-.31 1.06-.94 1.37-.62.31-1.39.57-2.3.77-.91.2-1.89.39-2.93.56s-1.99.4-2.83.68l-.69-1.29zM306.81 80.51c-2.14 0-3.2.55-3.2 1.66v22.97h-6.66l-13.57-21.56v17.86c0 1.1 1.07 1.66 3.2 1.66v2.05h-9.4v-2.05c2.14 0 3.2-.55 3.2-1.66V82.16c0-1.11-1.07-1.66-3.2-1.66v-2.12h9.65l13.79 22.1V82.16c0-1.1-1.07-1.66-3.2-1.66v-2.12h9.4v2.13zM321.39 80.51c-2.14 0-3.2.55-3.2 1.66v19.25c0 1.11 1.07 1.66 3.2 1.66v2.05h-11.95v-2.05c2.16 0 3.24-.55 3.24-1.66V82.16c0-1.11-1.08-1.66-3.24-1.66v-2.12h11.95v2.13zm-10.22-6.38c.72-.29 1.42-.65 2.09-1.1.67-.44 1.32-.86 1.94-1.26.62-.4 1.24-.74 1.84-1.03.6-.29 1.21-.43 1.84-.43.72 0 1.23.17 1.53.52.3.35.45.75.45 1.21 0 .6-.31 1.06-.94 1.37-.62.31-1.39.57-2.3.77-.91.2-1.89.39-2.93.56s-1.99.4-2.83.68l-.69-1.29zM52.06 170.79c.48 1.44 2.45 2.16 5.9 2.16v4.18H31.61v-4.18h6.34c1.39 0 2.09-.46 2.09-1.37 0-.14-.07-.41-.22-.79l-2.88-7.78h-22.1l-2.66 7.2c-.1.29-.14.58-.14.86 0 1.25 1.06 1.87 3.17 1.87h4.46v4.18H0v-4.25c2.02 0 3.5-.17 4.46-.5.96-.33 1.56-.84 1.8-1.51l18-47.23H34.7l17.36 47.16zm-35.36-13.1h18.43l-9.14-25.34-9.29 25.34zM88.7 127.88c-5.33 0-7.99 1.1-7.99 3.31v40.32h14.11c1.82 0 3.46-.25 4.9-.76 1.44-.5 2.69-1.34 3.74-2.52 1.06-1.18 1.91-2.75 2.56-4.72.65-1.97 1.09-4.44 1.33-7.42l4.75.5-1.73 20.52H63.29v-4.1c4.27 0 6.41-1.11 6.41-3.32V131.2c0-2.21-2.14-3.32-6.41-3.32v-4.25H88.7v4.25zM145.51 123.71c4.37 0 8.21.32 11.52.97 3.31.65 6.08 1.88 8.32 3.7 2.23 1.82 3.9 4.39 5 7.69 1.1 3.31 1.66 7.62 1.66 12.94 0 5.42-.55 9.92-1.66 13.52-1.1 3.6-2.77 6.47-5 8.63s-5 3.69-8.32 4.6c-3.31.91-7.15 1.37-11.52 1.37h-28.08v-4.1c4.27 0 6.41-1.11 6.41-3.32V131.2c0-2.21-2.14-3.32-6.41-3.32v-4.25l28.08.08zm-10.65 5.61v42.19h11.81c2.69 0 4.93-.49 6.73-1.48 1.8-.98 3.24-2.42 4.32-4.32 1.08-1.9 1.84-4.24 2.27-7.02.43-2.78.65-5.95.65-9.5s-.22-6.59-.65-9.11c-.43-2.52-1.19-4.57-2.27-6.16a9.504 9.504 0 00-4.32-3.49c-1.8-.74-4.04-1.12-6.73-1.12h-11.81zM223.06 170.79c.48 1.44 2.45 2.16 5.9 2.16v4.18h-26.35v-4.18h6.34c1.39 0 2.09-.46 2.09-1.37 0-.14-.07-.41-.22-.79l-2.88-7.78h-22.1l-2.66 7.2c-.1.29-.14.58-.14.86 0 1.25 1.06 1.87 3.17 1.87h4.46v4.18H171v-4.25c2.02 0 3.5-.17 4.46-.5.96-.33 1.56-.84 1.8-1.51l18-47.23h10.44l17.36 47.16zm-35.36-13.1h18.43l-9.14-25.34-9.29 25.34zM290.3 169.21c0 2.4-.7 4.4-2.09 6.01-1.39 1.61-3.77 2.41-7.13 2.41-3.74 0-6.41-.88-7.99-2.63s-2.38-3.92-2.38-6.52v-5.4c0-4.03-.58-6.97-1.73-8.82-1.15-1.85-3.27-2.77-6.34-2.77H251.7v18.14c0 2.21 2.66 3.31 7.99 3.31v4.18h-25.42v-4.18c4.27 0 6.41-1.1 6.41-3.31v-38.45c0-2.21-2.14-3.31-6.41-3.31v-4.25h30.82c2.35 0 4.66.16 6.91.47 2.26.31 4.26.95 6.01 1.91s3.16 2.32 4.21 4.07c1.06 1.75 1.58 4.07 1.58 6.95 0 1.87-.29 3.52-.87 4.93-.58 1.42-1.33 2.63-2.27 3.64-.94 1.01-2.01 1.83-3.21 2.45-1.2.62-2.45 1.08-3.75 1.37 1.24.43 2.36 1 3.36 1.69 1 .7 1.85 1.58 2.54 2.66s1.22 2.39 1.57 3.92c.36 1.54.54 3.36.54 5.47v6.62c0 1.06.22 1.84.66 2.34.44.5 1 .76 1.68.76.73 0 1.31-.25 1.75-.76.44-.5.66-1.28.66-2.34v-3.46h3.82v2.9zm-38.59-39.53v16.99h11.81c2.88 0 5.09-.66 6.62-1.98 1.54-1.32 2.3-3.56 2.3-6.73 0-5.52-2.98-8.28-8.93-8.28h-11.8zM322.63 122.55c3.84 0 7.4.48 10.69 1.44 3.29.96 6.12 2.53 8.5 4.71s4.24 5.05 5.58 8.59c1.34 3.55 2.02 7.91 2.02 13.09 0 4.27-.58 8.11-1.73 11.54-1.15 3.43-2.88 6.35-5.18 8.77s-5.21 4.29-8.71 5.61c-3.5 1.32-7.58 1.98-12.24 1.98-3.79 0-7.32-.46-10.58-1.37-3.26-.91-6.08-2.42-8.46-4.53s-4.25-4.87-5.62-8.27c-1.37-3.4-2.05-7.6-2.05-12.58 0-4.46.53-8.47 1.58-12.04 1.06-3.57 2.71-6.62 4.97-9.13 2.26-2.52 5.14-4.45 8.64-5.79 3.49-1.34 7.69-2.02 12.59-2.02zm.36 5.91c-2.98 0-5.54.44-7.7 1.33-2.16.89-3.92 2.17-5.29 3.85-1.37 1.68-2.38 3.74-3.02 6.19s-.97 5.23-.97 8.35c0 4.85.36 8.82 1.08 11.92.72 3.1 1.75 5.54 3.1 7.34 1.34 1.8 2.98 3.05 4.9 3.74 1.92.7 4.08 1.04 6.48 1.04 3.17 0 5.83-.47 7.99-1.4 2.16-.94 3.89-2.3 5.18-4.1 1.3-1.8 2.23-4.03 2.81-6.7.58-2.66.86-5.72.86-9.18 0-4.46-.37-8.14-1.12-11.02-.74-2.88-1.79-5.16-3.13-6.84-1.34-1.68-2.96-2.86-4.86-3.53-1.91-.66-4.01-.99-6.31-.99zM414 127.88c-4.27 0-6.41 1.1-6.41 3.31v45.94h-13.32L367.13 134v35.71c0 2.21 2.14 3.31 6.41 3.31v4.1h-18.79v-4.1c4.27 0 6.41-1.11 6.41-3.32v-38.5c0-2.21-2.14-3.32-6.41-3.32v-4.25h19.3l27.58 44.21v-36.65c0-2.21-2.14-3.31-6.41-3.31v-4.25H414v4.25z"/>
  <g>
    <path class="st0" d="M205.68 0l6.57 13.31 14.69 2.14-10.63 10.36 2.51 14.63-13.14-6.91-13.14 6.91 2.51-14.63-10.63-10.36 14.69-2.14zM249.35 16.56l3.22 9.85 9.94 2.94-8.38 6.1.28 10.36-8.39-6.08-9.76 3.47 3.18-9.86-6.31-8.21 10.36-.02zM163.86 16.56l-3.22 9.85-9.94 2.94 8.37 6.1-.28 10.36 8.39-6.08 9.77 3.47-3.19-9.86 6.32-8.21-10.36-.02z"/>
  </g>
</svg>
